<?xml version="1.0" encoding="iso-8859-1"?>
<!-- Generator: Adobe Illustrator 16.0.0, SVG Export Plug-In . SVG Version: 6.00 Build 0)  -->
<!DOCTYPE svg PUBLIC "-//W3C//DTD SVG 1.1//EN" "http://www.w3.org/Graphics/SVG/1.1/DTD/svg11.dtd">
<svg version="1.1" id="Layer_1" xmlns="http://www.w3.org/2000/svg" xmlns:xlink="http://www.w3.org/1999/xlink" x="0px" y="0px"
	 width="131.213px" height="131.213px" viewBox="0 0 131.213 131.213" style="enable-background:new 0 0 131.213 131.213;"
	 xml:space="preserve">
<circle style="fill:#333333;" cx="65.607" cy="65.606" r="65.607"/>
<path style="fill:#FFFFFF;" d="M64.379,88.758l-8.229-8.229l33.247-33.247c5.696,3.369,12.138,2.107,17.278-3.033l1.274-1.275
	L87.877,22.901l-1.274,1.274c-5.141,5.141-6.403,11.583-3.033,17.278L50.322,74.701l-8.041-8.041
	c-1.857-1.857-5.174-2.055-7.031-0.198c0,0-11.014,19.708-9.157,21.566l16.918,16.917c1.857,1.857,21.376-9.346,21.376-9.346
	C66.245,93.743,66.236,90.615,64.379,88.758z M88.287,28.491l14.038,14.037c-5.159,3.907-9.813,2.701-13.276-0.761
	C85.586,38.305,84.381,33.65,88.287,28.491z"/>
<g>
</g>
<g>
</g>
<g>
</g>
<g>
</g>
<g>
</g>
<g>
</g>
<g>
</g>
<g>
</g>
<g>
</g>
<g>
</g>
<g>
</g>
<g>
</g>
<g>
</g>
<g>
</g>
<g>
</g>
</svg>
